<svg aria-roledescription="sequence" role="graphics-document document" viewBox="-50 -10 3597 1507" style="max-width: 3597px;" xmlns="http://www.w3.org/2000/svg" width="100%" id="export-svg"><style xmlns="http://www.w3.org/1999/xhtml">@import url("https://cdnjs.cloudflare.com/ajax/libs/font-awesome/6.2.0/css/all.min.css"); p {margin: 0;}</style><g><rect class="rect" height="1486" width="299" stroke="rgb(0,0,0, 0.5)" fill="rgba(210, 210, 210, 0.3)" y="0" x="3198"/><text class="text" alignment-baseline="central" dominant-baseline="central" style="text-anchor: middle; font-size: 16px; font-weight: 400;" y="9" x="3347.5"><tspan dy="0" x="3347.5">UI Rendering</tspan></text></g><g><rect class="rect" height="1486" width="2118" stroke="rgb(0,0,0, 0.5)" fill="rgba(230, 230, 230, 0.3)" y="0" x="1020"/><text class="text" alignment-baseline="central" dominant-baseline="central" style="text-anchor: middle; font-size: 16px; font-weight: 400;" y="9" x="2079"><tspan dy="0" x="2079">Services</tspan></text></g><g><rect class="rect" height="1486" width="900" stroke="rgb(0,0,0, 0.5)" fill="rgba(210, 210, 210, 0.3)" y="0" x="0"/><text class="text" alignment-baseline="central" dominant-baseline="central" style="text-anchor: middle; font-size: 16px; font-weight: 400;" y="9" x="450"><tspan dy="0" x="450">User Interaction</tspan></text></g><g><rect class="actor actor-bottom" ry="3" rx="3" name="DynamicUIRenderer" height="65" width="165" stroke="#666" fill="#eaeaea" y="1411" x="3265"/><text class="actor actor-box" alignment-baseline="central" dominant-baseline="central" style="text-anchor: middle; font-size: 16px; font-weight: 400;" y="1443.5" x="3347.5"><tspan dy="0" x="3347.5">DynamicUIRenderer</tspan></text></g><g><rect class="actor actor-bottom" ry="3" rx="3" name="ResponseGenerationService" height="65" width="225" stroke="#666" fill="#eaeaea" y="1411" x="2862.5"/><text class="actor actor-box" alignment-baseline="central" dominant-baseline="central" style="text-anchor: middle; font-size: 16px; font-weight: 400;" y="1443.5" x="2975"><tspan dy="0" x="2975">ResponseGenerationService</tspan></text></g><g><rect class="actor actor-bottom" ry="3" rx="3" name="ClothingAdviceService" height="65" width="180" stroke="#666" fill="#eaeaea" y="1411" x="2632.5"/><text class="actor actor-box" alignment-baseline="central" dominant-baseline="central" style="text-anchor: middle; font-size: 16px; font-weight: 400;" y="1443.5" x="2722.5"><tspan dy="0" x="2722.5">ClothingAdviceService</tspan></text></g><g><rect class="actor actor-bottom" ry="3" rx="3" name="WeatherService" height="65" width="150" stroke="#666" fill="#eaeaea" y="1411" x="2432.5"/><text class="actor actor-box" alignment-baseline="central" dominant-baseline="central" style="text-anchor: middle; font-size: 16px; font-weight: 400;" y="1443.5" x="2507.5"><tspan dy="0" x="2507.5">WeatherService</tspan></text></g><g><rect class="actor actor-bottom" ry="3" rx="3" name="MapsService" height="65" width="150" stroke="#666" fill="#eaeaea" y="1411" x="2232.5"/><text class="actor actor-box" alignment-baseline="central" dominant-baseline="central" style="text-anchor: middle; font-size: 16px; font-weight: 400;" y="1443.5" x="2307.5"><tspan dy="0" x="2307.5">MapsService</tspan></text></g><g><rect class="actor actor-bottom" ry="3" rx="3" name="CalendarService" height="65" width="150" stroke="#666" fill="#eaeaea" y="1411" x="2032.5"/><text class="actor actor-box" alignment-baseline="central" dominant-baseline="central" style="text-anchor: middle; font-size: 16px; font-weight: 400;" y="1443.5" x="2107.5"><tspan dy="0" x="2107.5">CalendarService</tspan></text></g><g><rect class="actor actor-bottom" ry="3" rx="3" name="FlightService" height="65" width="150" stroke="#666" fill="#eaeaea" y="1411" x="1832.5"/><text class="actor actor-box" alignment-baseline="central" dominant-baseline="central" style="text-anchor: middle; font-size: 16px; font-weight: 400;" y="1443.5" x="1907.5"><tspan dy="0" x="1907.5">FlightService</tspan></text></g><g><rect class="actor actor-bottom" ry="3" rx="3" name="ActionExecutor" height="65" width="150" stroke="#666" fill="#eaeaea" y="1411" x="1550.5"/><text class="actor actor-box" alignment-baseline="central" dominant-baseline="central" style="text-anchor: middle; font-size: 16px; font-weight: 400;" y="1443.5" x="1625.5"><tspan dy="0" x="1625.5">ActionExecutor</tspan></text></g><g><rect class="actor actor-bottom" ry="3" rx="3" name="OpenAIAPI" height="65" width="150" stroke="#666" fill="#eaeaea" y="1411" x="1350.5"/><text class="actor actor-box" alignment-baseline="central" dominant-baseline="central" style="text-anchor: middle; font-size: 16px; font-weight: 400;" y="1443.5" x="1425.5"><tspan dy="0" x="1425.5">OpenAIAPI</tspan></text></g><g><rect class="actor actor-bottom" ry="3" rx="3" name="LLMService" height="65" width="150" stroke="#666" fill="#eaeaea" y="1411" x="1070.5"/><text class="actor actor-box" alignment-baseline="central" dominant-baseline="central" style="text-anchor: middle; font-size: 16px; font-weight: 400;" y="1443.5" x="1145.5"><tspan dy="0" x="1145.5">LLMService</tspan></text></g><g><rect class="actor actor-bottom" ry="3" rx="3" name="FlightDetailViewModel" height="65" width="178" stroke="#666" fill="#eaeaea" y="1411" x="645.5"/><text class="actor actor-box" alignment-baseline="central" dominant-baseline="central" style="text-anchor: middle; font-size: 16px; font-weight: 400;" y="1443.5" x="734.5"><tspan dy="0" x="734.5">FlightDetailViewModel</tspan></text></g><g><rect class="actor actor-bottom" ry="3" rx="3" name="FlightDetailView" height="65" width="150" stroke="#666" fill="#eaeaea" y="1411" x="445.5"/><text class="actor actor-box" alignment-baseline="central" dominant-baseline="central" style="text-anchor: middle; font-size: 16px; font-weight: 400;" y="1443.5" x="520.5"><tspan dy="0" x="520.5">FlightDetailView</tspan></text></g><g><rect class="actor actor-bottom" ry="3" rx="3" name="User" height="65" width="150" stroke="#666" fill="#eaeaea" y="1411" x="76.5"/><text class="actor actor-box" alignment-baseline="central" dominant-baseline="central" style="text-anchor: middle; font-size: 16px; font-weight: 400;" y="1443.5" x="151.5"><tspan dy="0" x="151.5">User</tspan></text></g><g><line data-id="DynamicUIRenderer" data-et="life-line" name="DynamicUIRenderer" stroke="#999" stroke-width="0.5px" class="actor-line 200" y2="1411" x2="3347.5" y1="93" x1="3347.5" id="actor1468"/><g data-id="DynamicUIRenderer" data-et="participant" id="root-1468"><rect class="actor actor-top" ry="3" rx="3" name="DynamicUIRenderer" height="65" width="165" stroke="#666" fill="#eaeaea" y="28" x="3265"/><text class="actor actor-box" alignment-baseline="central" dominant-baseline="central" style="text-anchor: middle; font-size: 16px; font-weight: 400;" y="60.5" x="3347.5"><tspan dy="0" x="3347.5">DynamicUIRenderer</tspan></text></g></g><g><line data-id="ResponseGenerationService" data-et="life-line" name="ResponseGenerationService" stroke="#999" stroke-width="0.5px" class="actor-line 200" y2="1411" x2="2975" y1="93" x1="2975" id="actor1467"/><g data-id="ResponseGenerationService" data-et="participant" id="root-1467"><rect class="actor actor-top" ry="3" rx="3" name="ResponseGenerationService" height="65" width="225" stroke="#666" fill="#eaeaea" y="28" x="2862.5"/><text class="actor actor-box" alignment-baseline="central" dominant-baseline="central" style="text-anchor: middle; font-size: 16px; font-weight: 400;" y="60.5" x="2975"><tspan dy="0" x="2975">ResponseGenerationService</tspan></text></g></g><g><line data-id="ClothingAdviceService" data-et="life-line" name="ClothingAdviceService" stroke="#999" stroke-width="0.5px" class="actor-line 200" y2="1411" x2="2722.5" y1="93" x1="2722.5" id="actor1466"/><g data-id="ClothingAdviceService" data-et="participant" id="root-1466"><rect class="actor actor-top" ry="3" rx="3" name="ClothingAdviceService" height="65" width="180" stroke="#666" fill="#eaeaea" y="28" x="2632.5"/><text class="actor actor-box" alignment-baseline="central" dominant-baseline="central" style="text-anchor: middle; font-size: 16px; font-weight: 400;" y="60.5" x="2722.5"><tspan dy="0" x="2722.5">ClothingAdviceService</tspan></text></g></g><g><line data-id="WeatherService" data-et="life-line" name="WeatherService" stroke="#999" stroke-width="0.5px" class="actor-line 200" y2="1411" x2="2507.5" y1="93" x1="2507.5" id="actor1465"/><g data-id="WeatherService" data-et="participant" id="root-1465"><rect class="actor actor-top" ry="3" rx="3" name="WeatherService" height="65" width="150" stroke="#666" fill="#eaeaea" y="28" x="2432.5"/><text class="actor actor-box" alignment-baseline="central" dominant-baseline="central" style="text-anchor: middle; font-size: 16px; font-weight: 400;" y="60.5" x="2507.5"><tspan dy="0" x="2507.5">WeatherService</tspan></text></g></g><g><line data-id="MapsService" data-et="life-line" name="MapsService" stroke="#999" stroke-width="0.5px" class="actor-line 200" y2="1411" x2="2307.5" y1="93" x1="2307.5" id="actor1464"/><g data-id="MapsService" data-et="participant" id="root-1464"><rect class="actor actor-top" ry="3" rx="3" name="MapsService" height="65" width="150" stroke="#666" fill="#eaeaea" y="28" x="2232.5"/><text class="actor actor-box" alignment-baseline="central" dominant-baseline="central" style="text-anchor: middle; font-size: 16px; font-weight: 400;" y="60.5" x="2307.5"><tspan dy="0" x="2307.5">MapsService</tspan></text></g></g><g><line data-id="CalendarService" data-et="life-line" name="CalendarService" stroke="#999" stroke-width="0.5px" class="actor-line 200" y2="1411" x2="2107.5" y1="93" x1="2107.5" id="actor1463"/><g data-id="CalendarService" data-et="participant" id="root-1463"><rect class="actor actor-top" ry="3" rx="3" name="CalendarService" height="65" width="150" stroke="#666" fill="#eaeaea" y="28" x="2032.5"/><text class="actor actor-box" alignment-baseline="central" dominant-baseline="central" style="text-anchor: middle; font-size: 16px; font-weight: 400;" y="60.5" x="2107.5"><tspan dy="0" x="2107.5">CalendarService</tspan></text></g></g><g><line data-id="FlightService" data-et="life-line" name="FlightService" stroke="#999" stroke-width="0.5px" class="actor-line 200" y2="1411" x2="1907.5" y1="93" x1="1907.5" id="actor1462"/><g data-id="FlightService" data-et="participant" id="root-1462"><rect class="actor actor-top" ry="3" rx="3" name="FlightService" height="65" width="150" stroke="#666" fill="#eaeaea" y="28" x="1832.5"/><text class="actor actor-box" alignment-baseline="central" dominant-baseline="central" style="text-anchor: middle; font-size: 16px; font-weight: 400;" y="60.5" x="1907.5"><tspan dy="0" x="1907.5">FlightService</tspan></text></g></g><g><line data-id="ActionExecutor" data-et="life-line" name="ActionExecutor" stroke="#999" stroke-width="0.5px" class="actor-line 200" y2="1411" x2="1625.5" y1="93" x1="1625.5" id="actor1461"/><g data-id="ActionExecutor" data-et="participant" id="root-1461"><rect class="actor actor-top" ry="3" rx="3" name="ActionExecutor" height="65" width="150" stroke="#666" fill="#eaeaea" y="28" x="1550.5"/><text class="actor actor-box" alignment-baseline="central" dominant-baseline="central" style="text-anchor: middle; font-size: 16px; font-weight: 400;" y="60.5" x="1625.5"><tspan dy="0" x="1625.5">ActionExecutor</tspan></text></g></g><g><line data-id="OpenAIAPI" data-et="life-line" name="OpenAIAPI" stroke="#999" stroke-width="0.5px" class="actor-line 200" y2="1411" x2="1425.5" y1="93" x1="1425.5" id="actor1460"/><g data-id="OpenAIAPI" data-et="participant" id="root-1460"><rect class="actor actor-top" ry="3" rx="3" name="OpenAIAPI" height="65" width="150" stroke="#666" fill="#eaeaea" y="28" x="1350.5"/><text class="actor actor-box" alignment-baseline="central" dominant-baseline="central" style="text-anchor: middle; font-size: 16px; font-weight: 400;" y="60.5" x="1425.5"><tspan dy="0" x="1425.5">OpenAIAPI</tspan></text></g></g><g><line data-id="LLMService" data-et="life-line" name="LLMService" stroke="#999" stroke-width="0.5px" class="actor-line 200" y2="1411" x2="1145.5" y1="93" x1="1145.5" id="actor1459"/><g data-id="LLMService" data-et="participant" id="root-1459"><rect class="actor actor-top" ry="3" rx="3" name="LLMService" height="65" width="150" stroke="#666" fill="#eaeaea" y="28" x="1070.5"/><text class="actor actor-box" alignment-baseline="central" dominant-baseline="central" style="text-anchor: middle; font-size: 16px; font-weight: 400;" y="60.5" x="1145.5"><tspan dy="0" x="1145.5">LLMService</tspan></text></g></g><g><line data-id="FlightDetailViewModel" data-et="life-line" name="FlightDetailViewModel" stroke="#999" stroke-width="0.5px" class="actor-line 200" y2="1411" x2="734.5" y1="93" x1="734.5" id="actor1458"/><g data-id="FlightDetailViewModel" data-et="participant" id="root-1458"><rect class="actor actor-top" ry="3" rx="3" name="FlightDetailViewModel" height="65" width="178" stroke="#666" fill="#eaeaea" y="28" x="645.5"/><text class="actor actor-box" alignment-baseline="central" dominant-baseline="central" style="text-anchor: middle; font-size: 16px; font-weight: 400;" y="60.5" x="734.5"><tspan dy="0" x="734.5">FlightDetailViewModel</tspan></text></g></g><g><line data-id="FlightDetailView" data-et="life-line" name="FlightDetailView" stroke="#999" stroke-width="0.5px" class="actor-line 200" y2="1411" x2="520.5" y1="93" x1="520.5" id="actor1457"/><g data-id="FlightDetailView" data-et="participant" id="root-1457"><rect class="actor actor-top" ry="3" rx="3" name="FlightDetailView" height="65" width="150" stroke="#666" fill="#eaeaea" y="28" x="445.5"/><text class="actor actor-box" alignment-baseline="central" dominant-baseline="central" style="text-anchor: middle; font-size: 16px; font-weight: 400;" y="60.5" x="520.5"><tspan dy="0" x="520.5">FlightDetailView</tspan></text></g></g><g><line data-id="User" data-et="life-line" name="User" stroke="#999" stroke-width="0.5px" class="actor-line 200" y2="1411" x2="151.5" y1="93" x1="151.5" id="actor1456"/><g data-id="User" data-et="participant" id="root-1456"><rect class="actor actor-top" ry="3" rx="3" name="User" height="65" width="150" stroke="#666" fill="#eaeaea" y="28" x="76.5"/><text class="actor actor-box" alignment-baseline="central" dominant-baseline="central" style="text-anchor: middle; font-size: 16px; font-weight: 400;" y="60.5" x="151.5"><tspan dy="0" x="151.5">User</tspan></text></g></g><style>#export-svg{font-family:"trebuchet ms",verdana,arial,sans-serif;font-size:10px;fill:#333;}#export-svg .error-icon{fill:#ffffff;}#export-svg .error-text{fill:#000000;stroke:#000000;}#export-svg .edge-thickness-normal{stroke-width:1px;}#export-svg .edge-thickness-thick{stroke-width:3.5px;}#export-svg .edge-pattern-solid{stroke-dasharray:0;}#export-svg .edge-thickness-invisible{stroke-width:0;fill:none;}#export-svg .edge-pattern-dashed{stroke-dasharray:3;}#export-svg .edge-pattern-dotted{stroke-dasharray:2;}#export-svg .marker{fill:#000000;stroke:#000000;}#export-svg .marker.cross{stroke:#000000;}#export-svg svg{font-family:"trebuchet ms",verdana,arial,sans-serif;font-size:10px;}#export-svg p{margin:0;}#export-svg .actor{stroke:hsl(0, 0%, 70%);fill:#ffffff;}#export-svg text.actor&gt;tspan{fill:#333;stroke:none;}#export-svg .actor-line{stroke:hsl(0, 0%, 70%);}#export-svg .messageLine0{stroke-width:1.5;stroke-dasharray:none;stroke:#333;}#export-svg .messageLine1{stroke-width:1.5;stroke-dasharray:2,2;stroke:#333;}#export-svg #arrowhead path{fill:#333;stroke:#333;}#export-svg .sequenceNumber{fill:#ffffff;}#export-svg #sequencenumber{fill:#333;}#export-svg #crosshead path{fill:#333;stroke:#333;}#export-svg .messageText{fill:#333;stroke:none;}#export-svg .labelBox{stroke:hsl(0, 0%, 70%);fill:#ffffff;}#export-svg .labelText,#export-svg .labelText&gt;tspan{fill:#333;stroke:none;}#export-svg .loopText,#export-svg .loopText&gt;tspan{fill:#333;stroke:none;}#export-svg .loopLine{stroke-width:2px;stroke-dasharray:2,2;stroke:hsl(0, 0%, 70%);fill:hsl(0, 0%, 70%);}#export-svg .note{stroke:hsl(52.6829268293, 60%, 73.9215686275%);fill:#fff5ad;}#export-svg .noteText,#export-svg .noteText&gt;tspan{fill:#333;stroke:none;}#export-svg .activation0{fill:hsl(-120, 0%, 80%);stroke:hsl(-120, 0%, 70%);}#export-svg .activation1{fill:hsl(-120, 0%, 80%);stroke:hsl(-120, 0%, 70%);}#export-svg .activation2{fill:hsl(-120, 0%, 80%);stroke:hsl(-120, 0%, 70%);}#export-svg .actorPopupMenu{position:absolute;}#export-svg .actorPopupMenuPanel{position:absolute;fill:#ffffff;box-shadow:0px 8px 16px 0px rgba(0,0,0,0.2);filter:drop-shadow(3px 5px 2px rgb(0 0 0 / 0.4));}#export-svg .actor-man line{stroke:hsl(0, 0%, 70%);fill:#ffffff;}#export-svg .actor-man circle,#export-svg line{stroke:hsl(0, 0%, 70%);fill:#ffffff;stroke-width:2px;}#export-svg .node .neo-node{stroke:#000000;}#export-svg [data-look="neo"].node rect,#export-svg [data-look="neo"].cluster rect,#export-svg [data-look="neo"].node polygon{stroke:url(#export-svg-gradient);filter:drop-shadow( 0px 1px 2px rgba(0, 0, 0, 0.25));}#export-svg [data-look="neo"].node rect,#export-svg [data-look="neo"].node polygon,#export-svg [data-look="neo"].node path{stroke:url(#export-svg-gradient);filter:drop-shadow( 0px 1px 2px rgba(0, 0, 0, 0.25));}#export-svg [data-look="neo"].node .neo-line path{stroke:hsl(0, 0%, 70%);filter:none;}#export-svg [data-look="neo"].node circle{stroke:url(#export-svg-gradient);filter:drop-shadow( 0px 1px 2px rgba(0, 0, 0, 0.25));}#export-svg [data-look="neo"].node circle .state-start{fill:#000000;}#export-svg [data-look="neo"].statediagram-cluster rect{fill:#ffffff;stroke:url(#export-svg-gradient);stroke-width:1px;}#export-svg [data-look="neo"].icon-shape .icon{fill:url(#export-svg-gradient);filter:drop-shadow( 0px 1px 2px rgba(0, 0, 0, 0.25));}#export-svg [data-look="neo"].icon-shape .icon-neo path{stroke:url(#export-svg-gradient);filter:drop-shadow( 0px 1px 2px rgba(0, 0, 0, 0.25));}#export-svg :root{--mermaid-font-family:"trebuchet ms",verdana,arial,sans-serif;}</style><g/><defs><symbol height="24" width="24" id="computer"><path d="M2 2v13h20v-13h-20zm18 11h-16v-9h16v9zm-10.228 6l.466-1h3.524l.467 1h-4.457zm14.228 3h-24l2-6h2.104l-1.33 4h18.45l-1.297-4h2.073l2 6zm-5-10h-14v-7h14v7z" transform="scale(.5)"/></symbol></defs><defs><symbol clip-rule="evenodd" fill-rule="evenodd" id="database"><path d="M12.258.001l.256.004.255.005.253.008.251.01.249.012.247.015.246.016.242.019.241.02.239.023.236.024.233.027.231.028.229.031.225.032.223.034.22.036.217.038.214.04.211.041.208.043.205.045.201.046.198.048.194.05.191.051.187.053.183.054.18.056.175.057.172.059.168.06.163.061.16.063.155.064.15.066.074.033.073.033.071.034.07.034.069.035.068.035.067.035.066.035.064.036.064.036.062.036.06.036.06.037.058.037.058.037.055.038.055.038.053.038.052.038.051.039.05.039.048.039.047.039.045.04.044.04.043.04.041.04.04.041.039.041.037.041.036.041.034.041.033.042.032.042.03.042.029.042.027.042.026.043.024.043.023.043.021.043.02.043.018.044.017.043.015.044.013.044.012.044.011.045.009.044.007.045.006.045.004.045.002.045.001.045v17l-.001.045-.002.045-.004.045-.006.045-.007.045-.009.044-.011.045-.012.044-.013.044-.015.044-.017.043-.018.044-.02.043-.021.043-.023.043-.024.043-.026.043-.027.042-.029.042-.03.042-.032.042-.033.042-.034.041-.036.041-.037.041-.039.041-.04.041-.041.04-.043.04-.044.04-.045.04-.047.039-.048.039-.05.039-.051.039-.052.038-.053.038-.055.038-.055.038-.058.037-.058.037-.06.037-.06.036-.062.036-.064.036-.064.036-.066.035-.067.035-.068.035-.069.035-.07.034-.071.034-.073.033-.074.033-.15.066-.155.064-.16.063-.163.061-.168.06-.172.059-.175.057-.18.056-.183.054-.187.053-.191.051-.194.05-.198.048-.201.046-.205.045-.208.043-.211.041-.214.04-.217.038-.22.036-.223.034-.225.032-.229.031-.231.028-.233.027-.236.024-.239.023-.241.02-.242.019-.246.016-.247.015-.249.012-.251.01-.253.008-.255.005-.256.004-.258.001-.258-.001-.256-.004-.255-.005-.253-.008-.251-.01-.249-.012-.247-.015-.245-.016-.243-.019-.241-.02-.238-.023-.236-.024-.234-.027-.231-.028-.228-.031-.226-.032-.223-.034-.22-.036-.217-.038-.214-.04-.211-.041-.208-.043-.204-.045-.201-.046-.198-.048-.195-.05-.19-.051-.187-.053-.184-.054-.179-.056-.176-.057-.172-.059-.167-.06-.164-.061-.159-.063-.155-.064-.151-.066-.074-.033-.072-.033-.072-.034-.07-.034-.069-.035-.068-.035-.067-.035-.066-.035-.064-.036-.063-.036-.062-.036-.061-.036-.06-.037-.058-.037-.057-.037-.056-.038-.055-.038-.053-.038-.052-.038-.051-.039-.049-.039-.049-.039-.046-.039-.046-.04-.044-.04-.043-.04-.041-.04-.04-.041-.039-.041-.037-.041-.036-.041-.034-.041-.033-.042-.032-.042-.03-.042-.029-.042-.027-.042-.026-.043-.024-.043-.023-.043-.021-.043-.02-.043-.018-.044-.017-.043-.015-.044-.013-.044-.012-.044-.011-.045-.009-.044-.007-.045-.006-.045-.004-.045-.002-.045-.001-.045v-17l.001-.045.002-.045.004-.045.006-.045.007-.045.009-.044.011-.045.012-.044.013-.044.015-.044.017-.043.018-.044.02-.043.021-.043.023-.043.024-.043.026-.043.027-.042.029-.042.03-.042.032-.042.033-.042.034-.041.036-.041.037-.041.039-.041.04-.041.041-.04.043-.04.044-.04.046-.04.046-.039.049-.039.049-.039.051-.039.052-.038.053-.038.055-.038.056-.038.057-.037.058-.037.06-.037.061-.036.062-.036.063-.036.064-.036.066-.035.067-.035.068-.035.069-.035.07-.034.072-.034.072-.033.074-.033.151-.066.155-.064.159-.063.164-.061.167-.06.172-.059.176-.057.179-.056.184-.054.187-.053.19-.051.195-.05.198-.048.201-.046.204-.045.208-.043.211-.041.214-.04.217-.038.22-.036.223-.034.226-.032.228-.031.231-.028.234-.027.236-.024.238-.023.241-.02.243-.019.245-.016.247-.015.249-.012.251-.01.253-.008.255-.005.256-.004.258-.001.258.001zm-9.258 20.499v.01l.001.021.003.021.004.022.005.021.006.022.007.022.009.023.01.022.011.023.012.023.013.023.015.023.016.024.017.023.018.024.019.024.021.024.022.025.023.024.024.025.052.049.056.05.061.051.066.051.07.051.075.051.079.052.084.052.088.052.092.052.097.052.102.051.105.052.11.052.114.051.119.051.123.051.127.05.131.05.135.05.139.048.144.049.147.047.152.047.155.047.16.045.163.045.167.043.171.043.176.041.178.041.183.039.187.039.19.037.194.035.197.035.202.033.204.031.209.03.212.029.216.027.219.025.222.024.226.021.23.02.233.018.236.016.24.015.243.012.246.01.249.008.253.005.256.004.259.001.26-.001.257-.004.254-.005.25-.008.247-.011.244-.012.241-.014.237-.016.233-.018.231-.021.226-.021.224-.024.22-.026.216-.027.212-.028.21-.031.205-.031.202-.034.198-.034.194-.036.191-.037.187-.039.183-.04.179-.04.175-.042.172-.043.168-.044.163-.045.16-.046.155-.046.152-.047.148-.048.143-.049.139-.049.136-.05.131-.05.126-.05.123-.051.118-.052.114-.051.11-.052.106-.052.101-.052.096-.052.092-.052.088-.053.083-.051.079-.052.074-.052.07-.051.065-.051.06-.051.056-.05.051-.05.023-.024.023-.025.021-.024.02-.024.019-.024.018-.024.017-.024.015-.023.014-.024.013-.023.012-.023.01-.023.01-.022.008-.022.006-.022.006-.022.004-.022.004-.021.001-.021.001-.021v-4.127l-.077.055-.08.053-.083.054-.085.053-.087.052-.09.052-.093.051-.095.05-.097.05-.1.049-.102.049-.105.048-.106.047-.109.047-.111.046-.114.045-.115.045-.118.044-.12.043-.122.042-.124.042-.126.041-.128.04-.13.04-.132.038-.134.038-.135.037-.138.037-.139.035-.142.035-.143.034-.144.033-.147.032-.148.031-.15.03-.151.03-.153.029-.154.027-.156.027-.158.026-.159.025-.161.024-.162.023-.163.022-.165.021-.166.02-.167.019-.169.018-.169.017-.171.016-.173.015-.173.014-.175.013-.175.012-.177.011-.178.01-.179.008-.179.008-.181.006-.182.005-.182.004-.184.003-.184.002h-.37l-.184-.002-.184-.003-.182-.004-.182-.005-.181-.006-.179-.008-.179-.008-.178-.01-.176-.011-.176-.012-.175-.013-.173-.014-.172-.015-.171-.016-.17-.017-.169-.018-.167-.019-.166-.02-.165-.021-.163-.022-.162-.023-.161-.024-.159-.025-.157-.026-.156-.027-.155-.027-.153-.029-.151-.03-.15-.03-.148-.031-.146-.032-.145-.033-.143-.034-.141-.035-.14-.035-.137-.037-.136-.037-.134-.038-.132-.038-.13-.04-.128-.04-.126-.041-.124-.042-.122-.042-.12-.044-.117-.043-.116-.045-.113-.045-.112-.046-.109-.047-.106-.047-.105-.048-.102-.049-.1-.049-.097-.05-.095-.05-.093-.052-.09-.051-.087-.052-.085-.053-.083-.054-.08-.054-.077-.054v4.127zm0-5.654v.011l.001.021.003.021.004.021.005.022.006.022.007.022.009.022.01.022.011.023.012.023.013.023.015.024.016.023.017.024.018.024.019.024.021.024.022.024.023.025.024.024.052.05.056.05.061.05.066.051.07.051.075.052.079.051.084.052.088.052.092.052.097.052.102.052.105.052.11.051.114.051.119.052.123.05.127.051.131.05.135.049.139.049.144.048.147.048.152.047.155.046.16.045.163.045.167.044.171.042.176.042.178.04.183.04.187.038.19.037.194.036.197.034.202.033.204.032.209.03.212.028.216.027.219.025.222.024.226.022.23.02.233.018.236.016.24.014.243.012.246.01.249.008.253.006.256.003.259.001.26-.001.257-.003.254-.006.25-.008.247-.01.244-.012.241-.015.237-.016.233-.018.231-.02.226-.022.224-.024.22-.025.216-.027.212-.029.21-.03.205-.032.202-.033.198-.035.194-.036.191-.037.187-.039.183-.039.179-.041.175-.042.172-.043.168-.044.163-.045.16-.045.155-.047.152-.047.148-.048.143-.048.139-.05.136-.049.131-.05.126-.051.123-.051.118-.051.114-.052.11-.052.106-.052.101-.052.096-.052.092-.052.088-.052.083-.052.079-.052.074-.051.07-.052.065-.051.06-.05.056-.051.051-.049.023-.025.023-.024.021-.025.02-.024.019-.024.018-.024.017-.024.015-.023.014-.023.013-.024.012-.022.01-.023.01-.023.008-.022.006-.022.006-.022.004-.021.004-.022.001-.021.001-.021v-4.139l-.077.054-.08.054-.083.054-.085.052-.087.053-.09.051-.093.051-.095.051-.097.05-.1.049-.102.049-.105.048-.106.047-.109.047-.111.046-.114.045-.115.044-.118.044-.12.044-.122.042-.124.042-.126.041-.128.04-.13.039-.132.039-.134.038-.135.037-.138.036-.139.036-.142.035-.143.033-.144.033-.147.033-.148.031-.15.03-.151.03-.153.028-.154.028-.156.027-.158.026-.159.025-.161.024-.162.023-.163.022-.165.021-.166.02-.167.019-.169.018-.169.017-.171.016-.173.015-.173.014-.175.013-.175.012-.177.011-.178.009-.179.009-.179.007-.181.007-.182.005-.182.004-.184.003-.184.002h-.37l-.184-.002-.184-.003-.182-.004-.182-.005-.181-.007-.179-.007-.179-.009-.178-.009-.176-.011-.176-.012-.175-.013-.173-.014-.172-.015-.171-.016-.17-.017-.169-.018-.167-.019-.166-.02-.165-.021-.163-.022-.162-.023-.161-.024-.159-.025-.157-.026-.156-.027-.155-.028-.153-.028-.151-.03-.15-.03-.148-.031-.146-.033-.145-.033-.143-.033-.141-.035-.14-.036-.137-.036-.136-.037-.134-.038-.132-.039-.13-.039-.128-.04-.126-.041-.124-.042-.122-.043-.12-.043-.117-.044-.116-.044-.113-.046-.112-.046-.109-.046-.106-.047-.105-.048-.102-.049-.1-.049-.097-.05-.095-.051-.093-.051-.09-.051-.087-.053-.085-.052-.083-.054-.08-.054-.077-.054v4.139zm0-5.666v.011l.001.02.003.022.004.021.005.022.006.021.007.022.009.023.01.022.011.023.012.023.013.023.015.023.016.024.017.024.018.023.019.024.021.025.022.024.023.024.024.025.052.05.056.05.061.05.066.051.07.051.075.052.079.051.084.052.088.052.092.052.097.052.102.052.105.051.11.052.114.051.119.051.123.051.127.05.131.05.135.05.139.049.144.048.147.048.152.047.155.046.16.045.163.045.167.043.171.043.176.042.178.04.183.04.187.038.19.037.194.036.197.034.202.033.204.032.209.03.212.028.216.027.219.025.222.024.226.021.23.02.233.018.236.017.24.014.243.012.246.01.249.008.253.006.256.003.259.001.26-.001.257-.003.254-.006.25-.008.247-.01.244-.013.241-.014.237-.016.233-.018.231-.02.226-.022.224-.024.22-.025.216-.027.212-.029.21-.03.205-.032.202-.033.198-.035.194-.036.191-.037.187-.039.183-.039.179-.041.175-.042.172-.043.168-.044.163-.045.16-.045.155-.047.152-.047.148-.048.143-.049.139-.049.136-.049.131-.051.126-.05.123-.051.118-.052.114-.051.11-.052.106-.052.101-.052.096-.052.092-.052.088-.052.083-.052.079-.052.074-.052.07-.051.065-.051.06-.051.056-.05.051-.049.023-.025.023-.025.021-.024.02-.024.019-.024.018-.024.017-.024.015-.023.014-.024.013-.023.012-.023.01-.022.01-.023.008-.022.006-.022.006-.022.004-.022.004-.021.001-.021.001-.021v-4.153l-.077.054-.08.054-.083.053-.085.053-.087.053-.09.051-.093.051-.095.051-.097.05-.1.049-.102.048-.105.048-.106.048-.109.046-.111.046-.114.046-.115.044-.118.044-.12.043-.122.043-.124.042-.126.041-.128.04-.13.039-.132.039-.134.038-.135.037-.138.036-.139.036-.142.034-.143.034-.144.033-.147.032-.148.032-.15.03-.151.03-.153.028-.154.028-.156.027-.158.026-.159.024-.161.024-.162.023-.163.023-.165.021-.166.02-.167.019-.169.018-.169.017-.171.016-.173.015-.173.014-.175.013-.175.012-.177.01-.178.01-.179.009-.179.007-.181.006-.182.006-.182.004-.184.003-.184.001-.185.001-.185-.001-.184-.001-.184-.003-.182-.004-.182-.006-.181-.006-.179-.007-.179-.009-.178-.01-.176-.01-.176-.012-.175-.013-.173-.014-.172-.015-.171-.016-.17-.017-.169-.018-.167-.019-.166-.02-.165-.021-.163-.023-.162-.023-.161-.024-.159-.024-.157-.026-.156-.027-.155-.028-.153-.028-.151-.03-.15-.03-.148-.032-.146-.032-.145-.033-.143-.034-.141-.034-.14-.036-.137-.036-.136-.037-.134-.038-.132-.039-.13-.039-.128-.041-.126-.041-.124-.041-.122-.043-.12-.043-.117-.044-.116-.044-.113-.046-.112-.046-.109-.046-.106-.048-.105-.048-.102-.048-.1-.05-.097-.049-.095-.051-.093-.051-.09-.052-.087-.052-.085-.053-.083-.053-.08-.054-.077-.054v4.153zm8.74-8.179l-.257.004-.254.005-.25.008-.247.011-.244.012-.241.014-.237.016-.233.018-.231.021-.226.022-.224.023-.22.026-.216.027-.212.028-.21.031-.205.032-.202.033-.198.034-.194.036-.191.038-.187.038-.183.04-.179.041-.175.042-.172.043-.168.043-.163.045-.16.046-.155.046-.152.048-.148.048-.143.048-.139.049-.136.05-.131.05-.126.051-.123.051-.118.051-.114.052-.11.052-.106.052-.101.052-.096.052-.092.052-.088.052-.083.052-.079.052-.074.051-.07.052-.065.051-.06.05-.056.05-.051.05-.023.025-.023.024-.021.024-.02.025-.019.024-.018.024-.017.023-.015.024-.014.023-.013.023-.012.023-.01.023-.01.022-.008.022-.006.023-.006.021-.004.022-.004.021-.001.021-.001.021.001.021.001.021.004.021.004.022.006.021.006.023.008.022.01.022.01.023.012.023.013.023.014.023.015.024.017.023.018.024.019.024.02.025.021.024.023.024.023.025.051.05.056.05.06.05.065.051.07.052.074.051.079.052.083.052.088.052.092.052.096.052.101.052.106.052.11.052.114.052.118.051.123.051.126.051.131.05.136.05.139.049.143.048.148.048.152.048.155.046.16.046.163.045.168.043.172.043.175.042.179.041.183.04.187.038.191.038.194.036.198.034.202.033.205.032.21.031.212.028.216.027.22.026.224.023.226.022.231.021.233.018.237.016.241.014.244.012.247.011.25.008.254.005.257.004.26.001.26-.001.257-.004.254-.005.25-.008.247-.011.244-.012.241-.014.237-.016.233-.018.231-.021.226-.022.224-.023.22-.026.216-.027.212-.028.21-.031.205-.032.202-.033.198-.034.194-.036.191-.038.187-.038.183-.04.179-.041.175-.042.172-.043.168-.043.163-.045.16-.046.155-.046.152-.048.148-.048.143-.048.139-.049.136-.05.131-.05.126-.051.123-.051.118-.051.114-.052.11-.052.106-.052.101-.052.096-.052.092-.052.088-.052.083-.052.079-.052.074-.051.07-.052.065-.051.06-.05.056-.05.051-.05.023-.025.023-.024.021-.024.02-.025.019-.024.018-.024.017-.023.015-.024.014-.023.013-.023.012-.023.01-.023.01-.022.008-.022.006-.023.006-.021.004-.022.004-.021.001-.021.001-.021-.001-.021-.001-.021-.004-.021-.004-.022-.006-.021-.006-.023-.008-.022-.01-.022-.01-.023-.012-.023-.013-.023-.014-.023-.015-.024-.017-.023-.018-.024-.019-.024-.02-.025-.021-.024-.023-.024-.023-.025-.051-.05-.056-.05-.06-.05-.065-.051-.07-.052-.074-.051-.079-.052-.083-.052-.088-.052-.092-.052-.096-.052-.101-.052-.106-.052-.11-.052-.114-.052-.118-.051-.123-.051-.126-.051-.131-.05-.136-.05-.139-.049-.143-.048-.148-.048-.152-.048-.155-.046-.16-.046-.163-.045-.168-.043-.172-.043-.175-.042-.179-.041-.183-.04-.187-.038-.191-.038-.194-.036-.198-.034-.202-.033-.205-.032-.21-.031-.212-.028-.216-.027-.22-.026-.224-.023-.226-.022-.231-.021-.233-.018-.237-.016-.241-.014-.244-.012-.247-.011-.25-.008-.254-.005-.257-.004-.26-.001-.26.001z" transform="scale(.5)"/></symbol></defs><defs><symbol height="24" width="24" id="clock"><path d="M12 2c5.514 0 10 4.486 10 10s-4.486 10-10 10-10-4.486-10-10 4.486-10 10-10zm0-2c-6.627 0-12 5.373-12 12s5.373 12 12 12 12-5.373 12-12-5.373-12-12-12zm5.848 12.459c.202.038.202.333.001.372-1.907.361-6.045 1.111-6.547 1.111-.719 0-1.301-.582-1.301-1.301 0-.512.77-5.447 1.125-7.445.034-.192.312-.181.343.014l.985 6.238 5.394 1.011z" transform="scale(.5)"/></symbol></defs><defs><marker orient="auto-start-reverse" markerHeight="12" markerWidth="12" markerUnits="userSpaceOnUse" refY="5" refX="7.9" id="arrowhead"><path d="M -1 0 L 10 5 L 0 10 z"/></marker></defs><defs><marker refY="4.5" refX="4" orient="auto" markerHeight="8" markerWidth="15" id="crosshead"><path style="stroke-dasharray: 0, 0;" d="M 1,2 L 6,7 M 6,2 L 1,7" stroke-width="1pt" stroke="#000000" fill="none"/></marker></defs><defs><marker orient="auto" markerHeight="28" markerWidth="20" refY="7" refX="15.5" id="filled-head"><path d="M 18,7 L9,13 L14,7 L9,1 Z"/></marker></defs><defs><marker orient="auto" markerHeight="40" markerWidth="60" refY="15" refX="15" id="sequencenumber"><circle r="6" cy="15" cx="15"/></marker></defs><g data-id="i6f07c19cf8" data-et="note"><rect class="note" height="38" width="419" stroke="#666" fill="#EDF2AE" y="103" x="126.5"/><text dy="1em" class="noteText" style="font-size: 16px; font-weight: 400;" alignment-baseline="middle" dominant-baseline="middle" text-anchor="middle" y="108" x="336"><tspan x="336">User selects a flight</tspan></text></g><g data-id="i0c14d0fc8d" data-et="note"><rect class="note" height="38" width="330" stroke="#666" fill="#EDF2AE" y="289" x="1120.5"/><text dy="1em" class="noteText" style="font-size: 16px; font-weight: 400;" alignment-baseline="middle" dominant-baseline="middle" text-anchor="middle" y="294" x="1286"><tspan x="1286">Recognizing User's Intent</tspan></text></g><g data-id="i71ac1b3118" data-et="note"><rect class="note" height="38" width="941" stroke="#666" fill="#EDF2AE" y="475" x="709.5"/><text dy="1em" class="noteText" style="font-size: 16px; font-weight: 400;" alignment-baseline="middle" dominant-baseline="middle" text-anchor="middle" y="480" x="1180"><tspan x="1180">Executing Actions</tspan></text></g><g data-id="ia8350a7d02" data-et="note"><rect class="note" height="38" width="1399.5" stroke="#666" fill="#EDF2AE" y="1029" x="1600.5"/><text dy="1em" class="noteText" style="font-size: 16px; font-weight: 400;" alignment-baseline="middle" dominant-baseline="middle" text-anchor="middle" y="1034" x="2300"><tspan x="2300">Generating Response</tspan></text></g><g data-id="ia2df63d53a" data-et="note"><rect class="note" height="38" width="1772" stroke="#666" fill="#EDF2AE" y="1169" x="1600.5"/><text dy="1em" class="noteText" style="font-size: 16px; font-weight: 400;" alignment-baseline="middle" dominant-baseline="middle" text-anchor="middle" y="1174" x="2487"><tspan x="2487">Rendering Updated UI</tspan></text></g><text dy="1em" class="messageText" style="font-size: 16px; font-weight: 400;" alignment-baseline="middle" dominant-baseline="middle" text-anchor="middle" y="156" x="335">Selects flight "AS3478" and submits query</text><line style="fill: none;" marker-start="url(#sequencenumber)" marker-end="url(#arrowhead)" stroke="none" stroke-width="2" data-to="FlightDetailView" data-from="User" data-id="i2ed54241c6" data-et="message" class="messageLine0" y2="187" x2="516.5" y1="187" x1="152.5"/><text class="sequenceNumber" text-anchor="middle" font-size="12px" font-family="sans-serif" y="191" x="152.5">1</text><text dy="1em" class="messageText" style="font-size: 16px; font-weight: 400;" alignment-baseline="middle" dominant-baseline="middle" text-anchor="middle" y="202" x="626">Handle user query</text><line style="fill: none;" marker-start="url(#sequencenumber)" marker-end="url(#arrowhead)" stroke="none" stroke-width="2" data-to="FlightDetailViewModel" data-from="FlightDetailView" data-id="i6719944e3c" data-et="message" class="messageLine0" y2="233" x2="730.5" y1="233" x1="521.5"/><text class="sequenceNumber" text-anchor="middle" font-size="12px" font-family="sans-serif" y="237" x="521.5">2</text><text dy="1em" class="messageText" style="font-size: 16px; font-weight: 400;" alignment-baseline="middle" dominant-baseline="middle" text-anchor="middle" y="248" x="939">sendUserQuery(query, flight)</text><line style="fill: none;" marker-start="url(#sequencenumber)" marker-end="url(#arrowhead)" stroke="none" stroke-width="2" data-to="LLMService" data-from="FlightDetailViewModel" data-id="ia8b4816d50" data-et="message" class="messageLine0" y2="279" x2="1141.5" y1="279" x1="735.5"/><text class="sequenceNumber" text-anchor="middle" font-size="12px" font-family="sans-serif" y="283" x="735.5">3</text><text dy="1em" class="messageText" style="font-size: 16px; font-weight: 400;" alignment-baseline="middle" dominant-baseline="middle" text-anchor="middle" y="342" x="1284">parseUserQuery(query, flight)</text><line style="fill: none;" marker-start="url(#sequencenumber)" marker-end="url(#arrowhead)" stroke="none" stroke-width="2" data-to="OpenAIAPI" data-from="LLMService" data-id="i006c9daf4c" data-et="message" class="messageLine0" y2="373" x2="1421.5" y1="373" x1="1146.5"/><text class="sequenceNumber" text-anchor="middle" font-size="12px" font-family="sans-serif" y="377" x="1146.5">4</text><text dy="1em" class="messageText" style="font-size: 16px; font-weight: 400;" alignment-baseline="middle" dominant-baseline="middle" text-anchor="middle" y="388" x="1287">ActionPlan</text><line marker-start="url(#sequencenumber)" marker-end="url(#arrowhead)" style="stroke-dasharray: 3, 3; fill: none;" stroke="none" stroke-width="2" data-to="LLMService" data-from="OpenAIAPI" data-id="ib466e0364b" data-et="message" class="messageLine1" y2="419" x2="1149.5" y1="419" x1="1424.5"/><text class="sequenceNumber" text-anchor="middle" font-size="12px" font-family="sans-serif" y="423" x="1424.5">5</text><text dy="1em" class="messageText" style="font-size: 16px; font-weight: 400;" alignment-baseline="middle" dominant-baseline="middle" text-anchor="middle" y="434" x="942">ActionPlan</text><line marker-start="url(#sequencenumber)" marker-end="url(#arrowhead)" style="stroke-dasharray: 3, 3; fill: none;" stroke="none" stroke-width="2" data-to="FlightDetailViewModel" data-from="LLMService" data-id="i31fb4322a7" data-et="message" class="messageLine1" y2="465" x2="738.5" y1="465" x1="1144.5"/><text class="sequenceNumber" text-anchor="middle" font-size="12px" font-family="sans-serif" y="469" x="1144.5">6</text><text dy="1em" class="messageText" style="font-size: 16px; font-weight: 400;" alignment-baseline="middle" dominant-baseline="middle" text-anchor="middle" y="528" x="1179">executeActionPlan(ActionPlan)</text><line style="fill: none;" marker-start="url(#sequencenumber)" marker-end="url(#arrowhead)" stroke="none" stroke-width="2" data-to="ActionExecutor" data-from="FlightDetailViewModel" data-id="icda19acd64" data-et="message" class="messageLine0" y2="559" x2="1621.5" y1="559" x1="735.5"/><text class="sequenceNumber" text-anchor="middle" font-size="12px" font-family="sans-serif" y="563" x="735.5">7</text><text dy="1em" class="messageText" style="font-size: 16px; font-weight: 400;" alignment-baseline="middle" dominant-baseline="middle" text-anchor="middle" y="574" x="1765">getFlightDetails(flightNumber)</text><line style="fill: none;" marker-start="url(#sequencenumber)" marker-end="url(#arrowhead)" stroke="none" stroke-width="2" data-to="FlightService" data-from="ActionExecutor" data-id="iaeb4871f9f" data-et="message" class="messageLine0" y2="605" x2="1903.5" y1="605" x1="1626.5"/><text class="sequenceNumber" text-anchor="middle" font-size="12px" font-family="sans-serif" y="609" x="1626.5">8</text><text dy="1em" class="messageText" style="font-size: 16px; font-weight: 400;" alignment-baseline="middle" dominant-baseline="middle" text-anchor="middle" y="620" x="1768">flightDetails</text><line marker-start="url(#sequencenumber)" marker-end="url(#arrowhead)" style="stroke-dasharray: 3, 3; fill: none;" stroke="none" stroke-width="2" data-to="ActionExecutor" data-from="FlightService" data-id="ic795012d2c" data-et="message" class="messageLine1" y2="651" x2="1629.5" y1="651" x1="1906.5"/><text class="sequenceNumber" text-anchor="middle" font-size="12px" font-family="sans-serif" y="655" x="1906.5">9</text><text dy="1em" class="messageText" style="font-size: 16px; font-weight: 400;" alignment-baseline="middle" dominant-baseline="middle" text-anchor="middle" y="666" x="1865">getEventDetails(event)</text><line style="fill: none;" marker-start="url(#sequencenumber)" marker-end="url(#arrowhead)" stroke="none" stroke-width="2" data-to="CalendarService" data-from="ActionExecutor" data-id="ife814759a6" data-et="message" class="messageLine0" y2="697" x2="2103.5" y1="697" x1="1626.5"/><text class="sequenceNumber" text-anchor="middle" font-size="12px" font-family="sans-serif" y="701" x="1626.5">10</text><text dy="1em" class="messageText" style="font-size: 16px; font-weight: 400;" alignment-baseline="middle" dominant-baseline="middle" text-anchor="middle" y="712" x="1868">eventDetails</text><line marker-start="url(#sequencenumber)" marker-end="url(#arrowhead)" style="stroke-dasharray: 3, 3; fill: none;" stroke="none" stroke-width="2" data-to="ActionExecutor" data-from="CalendarService" data-id="i750cbe9f69" data-et="message" class="messageLine1" y2="743" x2="1629.5" y1="743" x1="2106.5"/><text class="sequenceNumber" text-anchor="middle" font-size="12px" font-family="sans-serif" y="747" x="2106.5">11</text><text dy="1em" class="messageText" style="font-size: 16px; font-weight: 400;" alignment-baseline="middle" dominant-baseline="middle" text-anchor="middle" y="758" x="1965">getTravelTime(arrivalAirport, eventLocation)</text><line style="fill: none;" marker-start="url(#sequencenumber)" marker-end="url(#arrowhead)" stroke="none" stroke-width="2" data-to="MapsService" data-from="ActionExecutor" data-id="i29daf12ea0" data-et="message" class="messageLine0" y2="789" x2="2303.5" y1="789" x1="1626.5"/><text class="sequenceNumber" text-anchor="middle" font-size="12px" font-family="sans-serif" y="793" x="1626.5">12</text><text dy="1em" class="messageText" style="font-size: 16px; font-weight: 400;" alignment-baseline="middle" dominant-baseline="middle" text-anchor="middle" y="804" x="1968">travelTime</text><line marker-start="url(#sequencenumber)" marker-end="url(#arrowhead)" style="stroke-dasharray: 3, 3; fill: none;" stroke="none" stroke-width="2" data-to="ActionExecutor" data-from="MapsService" data-id="ia37ec377c3" data-et="message" class="messageLine1" y2="835" x2="1629.5" y1="835" x1="2306.5"/><text class="sequenceNumber" text-anchor="middle" font-size="12px" font-family="sans-serif" y="839" x="2306.5">13</text><text dy="1em" class="messageText" style="font-size: 16px; font-weight: 400;" alignment-baseline="middle" dominant-baseline="middle" text-anchor="middle" y="850" x="2065">getWeatherData(location, time)</text><line style="fill: none;" marker-start="url(#sequencenumber)" marker-end="url(#arrowhead)" stroke="none" stroke-width="2" data-to="WeatherService" data-from="ActionExecutor" data-id="ie51c9929b5" data-et="message" class="messageLine0" y2="881" x2="2503.5" y1="881" x1="1626.5"/><text class="sequenceNumber" text-anchor="middle" font-size="12px" font-family="sans-serif" y="885" x="1626.5">14</text><text dy="1em" class="messageText" style="font-size: 16px; font-weight: 400;" alignment-baseline="middle" dominant-baseline="middle" text-anchor="middle" y="896" x="2068">weatherData</text><line marker-start="url(#sequencenumber)" marker-end="url(#arrowhead)" style="stroke-dasharray: 3, 3; fill: none;" stroke="none" stroke-width="2" data-to="ActionExecutor" data-from="WeatherService" data-id="ib96a42dbcc" data-et="message" class="messageLine1" y2="927" x2="1629.5" y1="927" x1="2506.5"/><text class="sequenceNumber" text-anchor="middle" font-size="12px" font-family="sans-serif" y="931" x="2506.5">15</text><text dy="1em" class="messageText" style="font-size: 16px; font-weight: 400;" alignment-baseline="middle" dominant-baseline="middle" text-anchor="middle" y="942" x="2173">suggestAttire(weather, eventType)</text><line style="fill: none;" marker-start="url(#sequencenumber)" marker-end="url(#arrowhead)" stroke="none" stroke-width="2" data-to="ClothingAdviceService" data-from="ActionExecutor" data-id="i6cff47e152" data-et="message" class="messageLine0" y2="973" x2="2718.5" y1="973" x1="1626.5"/><text class="sequenceNumber" text-anchor="middle" font-size="12px" font-family="sans-serif" y="977" x="1626.5">16</text><text dy="1em" class="messageText" style="font-size: 16px; font-weight: 400;" alignment-baseline="middle" dominant-baseline="middle" text-anchor="middle" y="988" x="2176">clothingAdvice</text><line marker-start="url(#sequencenumber)" marker-end="url(#arrowhead)" style="stroke-dasharray: 3, 3; fill: none;" stroke="none" stroke-width="2" data-to="ActionExecutor" data-from="ClothingAdviceService" data-id="i8067a5d7fa" data-et="message" class="messageLine1" y2="1019" x2="1629.5" y1="1019" x1="2721.5"/><text class="sequenceNumber" text-anchor="middle" font-size="12px" font-family="sans-serif" y="1023" x="2721.5">17</text><text dy="1em" class="messageText" style="font-size: 16px; font-weight: 400;" alignment-baseline="middle" dominant-baseline="middle" text-anchor="middle" y="1082" x="2299">generateUIResponse(context, components)</text><line style="fill: none;" marker-start="url(#sequencenumber)" marker-end="url(#arrowhead)" stroke="none" stroke-width="2" data-to="ResponseGenerationService" data-from="ActionExecutor" data-id="ic7a45cea79" data-et="message" class="messageLine0" y2="1113" x2="2971" y1="1113" x1="1626.5"/><text class="sequenceNumber" text-anchor="middle" font-size="12px" font-family="sans-serif" y="1117" x="1626.5">18</text><text dy="1em" class="messageText" style="font-size: 16px; font-weight: 400;" alignment-baseline="middle" dominant-baseline="middle" text-anchor="middle" y="1128" x="2302">UIResponse</text><line marker-start="url(#sequencenumber)" marker-end="url(#arrowhead)" style="stroke-dasharray: 3, 3; fill: none;" stroke="none" stroke-width="2" data-to="ActionExecutor" data-from="ResponseGenerationService" data-id="ieb95536397" data-et="message" class="messageLine1" y2="1159" x2="1629.5" y1="1159" x1="2974"/><text class="sequenceNumber" text-anchor="middle" font-size="12px" font-family="sans-serif" y="1163" x="2974">19</text><text dy="1em" class="messageText" style="font-size: 16px; font-weight: 400;" alignment-baseline="middle" dominant-baseline="middle" text-anchor="middle" y="1222" x="1182">UIResponse</text><line marker-start="url(#sequencenumber)" marker-end="url(#arrowhead)" style="stroke-dasharray: 3, 3; fill: none;" stroke="none" stroke-width="2" data-to="FlightDetailViewModel" data-from="ActionExecutor" data-id="iab49296ad8" data-et="message" class="messageLine1" y2="1253" x2="738.5" y1="1253" x1="1624.5"/><text class="sequenceNumber" text-anchor="middle" font-size="12px" font-family="sans-serif" y="1257" x="1624.5">20</text><text dy="1em" class="messageText" style="font-size: 16px; font-weight: 400;" alignment-baseline="middle" dominant-baseline="middle" text-anchor="middle" y="1268" x="629">UIResponse</text><line marker-start="url(#sequencenumber)" marker-end="url(#arrowhead)" style="stroke-dasharray: 3, 3; fill: none;" stroke="none" stroke-width="2" data-to="FlightDetailView" data-from="FlightDetailViewModel" data-id="i04eae7eda5" data-et="message" class="messageLine1" y2="1299" x2="524.5" y1="1299" x1="733.5"/><text class="sequenceNumber" text-anchor="middle" font-size="12px" font-family="sans-serif" y="1303" x="733.5">21</text><text dy="1em" class="messageText" style="font-size: 16px; font-weight: 400;" alignment-baseline="middle" dominant-baseline="middle" text-anchor="middle" y="1314" x="1933">render(UIComponents)</text><line style="fill: none;" marker-start="url(#sequencenumber)" marker-end="url(#arrowhead)" stroke="none" stroke-width="2" data-to="DynamicUIRenderer" data-from="FlightDetailView" data-id="i3ad8e963f2" data-et="message" class="messageLine0" y2="1345" x2="3343.5" y1="1345" x1="521.5"/><text class="sequenceNumber" text-anchor="middle" font-size="12px" font-family="sans-serif" y="1349" x="521.5">22</text><text dy="1em" class="messageText" style="font-size: 16px; font-weight: 400;" alignment-baseline="middle" dominant-baseline="middle" text-anchor="middle" y="1360" x="1751">Display Updated UI</text><line marker-start="url(#sequencenumber)" marker-end="url(#arrowhead)" style="stroke-dasharray: 3, 3; fill: none;" stroke="none" stroke-width="2" data-to="User" data-from="DynamicUIRenderer" data-id="i3ff8db54b3" data-et="message" class="messageLine1" y2="1391" x2="155.5" y1="1391" x1="3346.5"/><text class="sequenceNumber" text-anchor="middle" font-size="12px" font-family="sans-serif" y="1395" x="3346.5">23</text></svg>